<svg width="18" height="13" viewBox="0 0 18 13" fill="none" xmlns="http://www.w3.org/2000/svg">
<path d="M17.7416 0.229521C17.8144 0.302093 17.8721 0.388305 17.9115 0.483219C17.9509 0.578133 17.9711 0.679885 17.9711 0.782647C17.9711 0.885408 17.9509 0.98716 17.9115 1.08207C17.8721 1.17699 17.8144 1.2632 17.7416 1.33577L6.80411 12.2733C6.73154 12.346 6.64533 12.4037 6.55042 12.4431C6.4555 12.4825 6.35375 12.5028 6.25099 12.5028C6.14822 12.5028 6.04647 12.4825 5.95156 12.4431C5.85665 12.4037 5.77043 12.346 5.69786 12.2733L0.229112 6.80452C0.0824138 6.65782 0 6.45886 0 6.2514C0 6.04393 0.0824138 5.84497 0.229112 5.69827C0.37581 5.55157 0.574775 5.46916 0.782237 5.46916C0.989699 5.46916 1.18866 5.55157 1.33536 5.69827L6.25099 10.6155L16.6354 0.229521C16.7079 0.156766 16.7941 0.0990434 16.8891 0.0596583C16.984 0.0202732 17.0857 0 17.1885 0C17.2912 0 17.393 0.0202732 17.4879 0.0596583C17.5828 0.0990434 17.669 0.156766 17.7416 0.229521Z" fill="white"/>
</svg>
